<svg xmlns="http://www.w3.org/2000/svg" xmlns:xlink="http://www.w3.org/1999/xlink" width="1024" zoomAndPan="magnify" viewBox="0 0 768 767.999994" height="1024" preserveAspectRatio="xMidYMid meet" version="1.0"><defs><clipPath id="88814b6de6"><path d="M 31 0 L 737.464844 0 L 737.464844 768 L 31 768 Z M 31 0 " clip-rule="nonzero"/></clipPath><clipPath id="05543f1e8f"><path d="M 295.085938 510.503906 L 481.5625 510.503906 L 481.5625 643.140625 L 295.085938 643.140625 Z M 295.085938 510.503906 " clip-rule="nonzero"/></clipPath><clipPath id="8db4082b97"><path d="M 190.804688 12.859375 L 576.890625 12.859375 L 576.890625 398.945312 L 190.804688 398.945312 Z M 190.804688 12.859375 " clip-rule="nonzero"/></clipPath><clipPath id="c5b7f74808"><path d="M 317 399.25 L 459 399.25 L 459 513.5 L 317 513.5 Z M 317 399.25 " clip-rule="nonzero"/></clipPath><clipPath id="1f38015a94"><path d="M 437.757812 264.15625 L 434.957031 275.289062 L 432.640625 284.492188 L 429.839844 295.625 L 427.523438 304.832031 L 424.722656 315.964844 L 422.40625 325.167969 L 419.605469 336.300781 L 417.289062 345.507812 L 388.207031 461.132812 L 359.117188 345.507812 L 356.800781 336.304688 L 354 325.171875 L 351.683594 315.96875 L 348.882812 304.835938 L 346.566406 295.628906 L 343.765625 284.496094 L 341.449219 275.292969 L 338.648438 264.160156 L 336.332031 254.953125 L 317.960938 285.636719 L 320.277344 294.84375 L 323.078125 305.976562 L 325.394531 315.179688 L 328.199219 326.3125 L 330.515625 335.519531 L 333.316406 346.652344 L 335.632812 355.855469 L 338.433594 366.988281 L 340.75 376.195312 L 375.046875 512.53125 L 375.046875 526.285156 L 373.601562 526.285156 L 373.601562 542.820312 L 374.972656 542.820312 L 374.972656 545.804688 C 374.972656 553.109375 380.898438 559.03125 388.210938 559.03125 C 395.523438 559.03125 401.449219 553.109375 401.449219 545.804688 L 401.449219 542.820312 L 402.820312 542.820312 L 402.820312 526.285156 L 401.375 526.285156 L 401.375 512.53125 L 435.671875 376.195312 L 437.988281 366.988281 L 440.792969 355.855469 L 443.109375 346.652344 L 445.910156 335.519531 L 448.226562 326.3125 L 451.027344 315.179688 L 453.34375 305.976562 L 456.144531 294.84375 L 458.460938 285.636719 L 440.085938 254.949219 Z M 400.011719 545.484375 C 400.011719 552 394.726562 557.285156 388.207031 557.285156 C 381.683594 557.285156 376.398438 552 376.398438 545.484375 L 376.398438 542.824219 L 400.011719 542.824219 Z M 400.71875 535.601562 L 400.71875 536.375 L 375.691406 536.375 L 375.691406 534.386719 L 400.71875 534.386719 Z M 400.71875 531.800781 L 375.691406 531.800781 L 375.691406 529.8125 L 400.71875 529.8125 Z M 400.71875 531.800781 " clip-rule="nonzero"/></clipPath><radialGradient gradientTransform="matrix(1.000395, 0, 0, 0.999605, 181.704772, 175.571309)" gradientUnits="userSpaceOnUse" r="118.460639" cx="206.419134" id="ebe5379339" cy="231.513438" fx="206.419134" fy="231.513438"><stop stop-opacity="1" stop-color="rgb(13.699341%, 12.199402%, 12.5%)" offset="0"/><stop stop-opacity="1" stop-color="rgb(13.699341%, 12.199402%, 12.5%)" offset="1"/></radialGradient></defs><g clip-path="url(#88814b6de6)"><path fill="#000000" d="M 737.421875 698.855469 L 737.421875 691.097656 C 737.421875 643.449219 728.078125 597.203125 709.648438 553.640625 C 691.855469 511.589844 666.394531 473.832031 633.972656 441.417969 C 601.550781 409.003906 563.78125 383.550781 521.714844 365.765625 C 518.949219 364.59375 516.164062 363.46875 513.367188 362.367188 C 518.660156 358.039062 523.757812 353.4375 528.640625 348.554688 C 547.382812 329.820312 562.101562 307.984375 572.390625 283.667969 C 583.050781 258.46875 588.457031 231.722656 588.457031 204.179688 C 588.457031 176.632812 583.054688 149.886719 572.390625 124.691406 C 562.105469 100.371094 547.382812 78.539062 528.640625 59.800781 C 509.894531 41.0625 488.058594 26.34375 463.730469 16.058594 C 438.523438 5.402344 411.773438 -0.00390625 384.21875 -0.00390625 C 356.664062 -0.00390625 329.914062 5.402344 304.707031 16.058594 C 280.382812 26.34375 258.542969 41.0625 239.800781 59.800781 C 221.054688 78.539062 206.335938 100.371094 196.046875 124.691406 C 185.382812 149.886719 179.980469 176.632812 179.980469 204.179688 C 179.980469 231.722656 185.386719 258.46875 196.046875 283.667969 C 206.335938 307.984375 221.058594 329.816406 239.800781 348.554688 C 244.683594 353.4375 249.78125 358.039062 255.074219 362.367188 C 252.273438 363.46875 249.488281 364.597656 246.722656 365.765625 C 204.660156 383.550781 166.890625 409.003906 134.46875 441.417969 C 102.042969 473.832031 76.582031 511.589844 58.792969 553.640625 C 40.359375 597.203125 31.019531 643.449219 31.019531 691.097656 L 31.019531 698.855469 C 31.019531 735.097656 58.839844 764.964844 94.257812 768.234375 L 678.984375 767.625 L 679.199219 767.601562 C 685.28125 766.972656 691.179688 765.167969 696.570312 762.28125 C 720.648438 751.296875 737.421875 727 737.421875 698.855469 Z M 233.6875 267.75 C 225.167969 247.617188 220.847656 226.226562 220.847656 204.179688 C 220.847656 182.128906 225.167969 160.742188 233.6875 140.605469 C 241.914062 121.15625 253.695312 103.6875 268.699219 88.691406 C 283.699219 73.691406 301.171875 61.914062 320.625 53.6875 C 340.769531 45.171875 362.164062 40.851562 384.21875 40.851562 C 406.273438 40.851562 427.667969 45.171875 447.8125 53.6875 C 467.265625 61.914062 484.738281 73.691406 499.742188 88.691406 C 514.746094 103.6875 526.523438 121.15625 534.753906 140.605469 C 543.273438 160.742188 547.589844 182.128906 547.589844 204.179688 C 547.589844 226.226562 543.269531 247.617188 534.753906 267.75 C 526.523438 287.199219 514.746094 304.664062 499.742188 319.664062 C 484.738281 334.664062 467.265625 346.441406 447.8125 354.664062 C 427.667969 363.183594 406.273438 367.5 384.21875 367.5 C 362.164062 367.5 340.769531 363.183594 320.625 354.664062 C 301.171875 346.441406 283.699219 334.664062 268.699219 319.664062 C 253.695312 304.664062 241.914062 287.199219 233.6875 267.75 Z M 696.554688 698.855469 C 696.554688 714.75 683.621094 727.679688 667.722656 727.679688 L 100.714844 727.679688 C 84.816406 727.679688 71.882812 714.75 71.882812 698.855469 L 71.882812 691.097656 C 71.882812 648.945312 80.140625 608.054688 96.429688 569.558594 C 112.160156 532.375 134.679688 498.980469 163.363281 470.304688 C 192.046875 441.632812 225.449219 419.117188 262.644531 403.390625 C 270.839844 399.925781 279.261719 396.78125 287.675781 394.042969 C 287.679688 394.042969 287.679688 394.042969 287.679688 394.042969 C 290.609375 393.089844 293.597656 392.167969 296.554688 391.304688 C 297.652344 390.984375 298.703125 390.574219 299.699219 390.09375 C 301.359375 390.847656 303.023438 391.582031 304.707031 392.292969 C 329.910156 402.953125 356.664062 408.355469 384.21875 408.355469 C 411.769531 408.355469 438.523438 402.949219 463.730469 392.292969 C 465.410156 391.582031 467.078125 390.847656 468.734375 390.09375 C 469.734375 390.574219 470.785156 390.984375 471.882812 391.304688 C 483.324219 394.648438 494.734375 398.714844 505.792969 403.390625 C 542.988281 419.117188 576.390625 441.632812 605.074219 470.304688 C 633.753906 498.980469 656.277344 532.375 672.007812 569.558594 C 688.296875 608.054688 696.554688 648.945312 696.554688 691.097656 Z M 696.554688 698.855469 " fill-opacity="1" fill-rule="nonzero"/></g><g clip-path="url(#05543f1e8f)"><path fill="#000000" d="M 459.363281 510.53125 L 317.289062 510.53125 C 316.558594 510.53125 315.835938 510.566406 315.113281 510.636719 C 314.386719 510.710938 313.671875 510.816406 312.957031 510.957031 C 312.246094 511.101562 311.539062 511.277344 310.84375 511.484375 C 310.148438 511.695312 309.464844 511.941406 308.796875 512.21875 C 308.125 512.496094 307.46875 512.804688 306.828125 513.144531 C 306.183594 513.488281 305.5625 513.859375 304.957031 514.261719 C 304.355469 514.664062 303.769531 515.09375 303.210938 515.550781 C 302.648438 516.011719 302.109375 516.496094 301.597656 517.007812 C 301.082031 517.519531 300.59375 518.054688 300.132812 518.613281 C 299.671875 519.171875 299.238281 519.753906 298.835938 520.355469 C 298.429688 520.957031 298.058594 521.578125 297.714844 522.214844 C 297.371094 522.851562 297.0625 523.507812 296.78125 524.175781 C 296.503906 524.84375 296.257812 525.523438 296.046875 526.214844 C 295.835938 526.90625 295.660156 527.609375 295.515625 528.316406 C 295.375 529.027344 295.269531 529.742188 295.195312 530.460938 C 295.125 531.183594 295.089844 531.902344 295.085938 532.628906 L 295.085938 621.019531 C 295.089844 621.742188 295.125 622.460938 295.195312 623.183594 C 295.269531 623.902344 295.375 624.617188 295.515625 625.328125 C 295.660156 626.035156 295.835938 626.738281 296.046875 627.429688 C 296.257812 628.121094 296.503906 628.800781 296.78125 629.472656 C 297.0625 630.140625 297.371094 630.792969 297.714844 631.429688 C 298.058594 632.066406 298.429688 632.6875 298.835938 633.289062 C 299.238281 633.890625 299.671875 634.472656 300.132812 635.03125 C 300.59375 635.589844 301.082031 636.125 301.597656 636.636719 C 302.109375 637.148438 302.648438 637.632812 303.210938 638.09375 C 303.769531 638.550781 304.355469 638.984375 304.957031 639.382812 C 305.5625 639.785156 306.183594 640.160156 306.828125 640.5 C 307.46875 640.839844 308.125 641.152344 308.796875 641.425781 C 309.464844 641.703125 310.148438 641.949219 310.84375 642.160156 C 311.539062 642.371094 312.246094 642.546875 312.957031 642.6875 C 313.671875 642.828125 314.386719 642.933594 315.113281 643.007812 C 315.835938 643.078125 316.558594 643.113281 317.289062 643.113281 L 459.363281 643.113281 C 460.089844 643.113281 460.816406 643.078125 461.539062 643.007812 C 462.261719 642.933594 462.980469 642.828125 463.695312 642.6875 C 464.40625 642.546875 465.109375 642.371094 465.804688 642.160156 C 466.503906 641.949219 467.183594 641.703125 467.855469 641.425781 C 468.527344 641.152344 469.183594 640.839844 469.824219 640.5 C 470.464844 640.160156 471.089844 639.785156 471.691406 639.382812 C 472.296875 638.984375 472.878906 638.550781 473.441406 638.09375 C 474.003906 637.632812 474.542969 637.148438 475.054688 636.636719 C 475.570312 636.125 476.058594 635.589844 476.519531 635.03125 C 476.980469 634.472656 477.414062 633.890625 477.816406 633.289062 C 478.21875 632.6875 478.59375 632.066406 478.9375 631.429688 C 479.28125 630.792969 479.589844 630.140625 479.867188 629.472656 C 480.148438 628.800781 480.390625 628.121094 480.605469 627.429688 C 480.816406 626.738281 480.992188 626.035156 481.132812 625.328125 C 481.277344 624.617188 481.382812 623.902344 481.457031 623.183594 C 481.527344 622.460938 481.5625 621.742188 481.5625 621.019531 L 481.5625 532.628906 C 481.5625 531.902344 481.527344 531.183594 481.457031 530.460938 C 481.382812 529.742188 481.277344 529.027344 481.132812 528.316406 C 480.992188 527.609375 480.816406 526.90625 480.605469 526.214844 C 480.390625 525.523438 480.148438 524.84375 479.867188 524.175781 C 479.589844 523.507812 479.28125 522.851562 478.9375 522.214844 C 478.59375 521.578125 478.21875 520.957031 477.816406 520.355469 C 477.414062 519.753906 476.980469 519.171875 476.519531 518.613281 C 476.058594 518.054688 475.570312 517.519531 475.054688 517.007812 C 474.542969 516.496094 474.003906 516.011719 473.441406 515.550781 C 472.878906 515.09375 472.296875 514.664062 471.691406 514.261719 C 471.089844 513.859375 470.464844 513.488281 469.824219 513.144531 C 469.183594 512.804688 468.527344 512.496094 467.855469 512.21875 C 467.183594 511.941406 466.503906 511.695312 465.804688 511.484375 C 465.109375 511.277344 464.40625 511.101562 463.695312 510.957031 C 462.980469 510.816406 462.261719 510.710938 461.539062 510.636719 C 460.816406 510.566406 460.089844 510.53125 459.363281 510.53125 Z M 472.683594 621.019531 C 472.683594 621.886719 472.597656 622.75 472.425781 623.601562 C 472.253906 624.457031 472 625.285156 471.667969 626.089844 C 471.332031 626.894531 470.921875 627.65625 470.433594 628.378906 C 469.949219 629.105469 469.398438 629.773438 468.777344 630.386719 C 468.160156 631.003906 467.488281 631.554688 466.761719 632.039062 C 466.035156 632.519531 465.265625 632.929688 464.460938 633.261719 C 463.652344 633.597656 462.820312 633.847656 461.960938 634.019531 C 461.105469 634.1875 460.238281 634.273438 459.363281 634.277344 L 317.289062 634.277344 C 316.414062 634.273438 315.546875 634.1875 314.691406 634.019531 C 313.832031 633.847656 313 633.597656 312.191406 633.261719 C 311.382812 632.929688 310.617188 632.519531 309.890625 632.039062 C 309.164062 631.554688 308.492188 631.003906 307.871094 630.386719 C 307.253906 629.773438 306.703125 629.105469 306.214844 628.378906 C 305.730469 627.65625 305.320312 626.894531 304.984375 626.089844 C 304.648438 625.285156 304.398438 624.457031 304.226562 623.601562 C 304.054688 622.75 303.96875 621.886719 303.96875 621.019531 L 303.96875 532.628906 C 303.96875 531.757812 304.054688 530.894531 304.226562 530.042969 C 304.398438 529.1875 304.648438 528.359375 304.984375 527.554688 C 305.320312 526.753906 305.730469 525.988281 306.214844 525.265625 C 306.703125 524.542969 307.253906 523.871094 307.871094 523.257812 C 308.492188 522.640625 309.164062 522.089844 309.890625 521.609375 C 310.617188 521.125 311.382812 520.714844 312.191406 520.382812 C 313 520.046875 313.832031 519.796875 314.691406 519.625 C 315.546875 519.457031 316.414062 519.371094 317.289062 519.367188 L 459.363281 519.367188 C 460.238281 519.371094 461.105469 519.457031 461.960938 519.625 C 462.820312 519.796875 463.652344 520.046875 464.460938 520.382812 C 465.265625 520.714844 466.035156 521.125 466.761719 521.609375 C 467.488281 522.089844 468.160156 522.640625 468.777344 523.257812 C 469.398438 523.871094 469.949219 524.542969 470.433594 525.265625 C 470.921875 525.988281 471.332031 526.753906 471.667969 527.554688 C 472 528.359375 472.253906 529.1875 472.425781 530.042969 C 472.597656 530.894531 472.683594 531.757812 472.683594 532.628906 Z M 352.804688 581.242188 C 353.535156 581.242188 354.257812 581.207031 354.984375 581.136719 C 355.707031 581.066406 356.425781 580.957031 357.136719 580.816406 C 357.851562 580.675781 358.554688 580.5 359.25 580.289062 C 359.945312 580.082031 360.628906 579.835938 361.300781 579.558594 C 361.972656 579.28125 362.628906 578.972656 363.269531 578.632812 C 363.914062 578.292969 364.535156 577.921875 365.140625 577.519531 C 365.746094 577.117188 366.328125 576.683594 366.890625 576.226562 C 367.453125 575.765625 367.988281 575.28125 368.503906 574.769531 C 369.019531 574.257812 369.503906 573.722656 369.96875 573.164062 C 370.429688 572.605469 370.859375 572.023438 371.265625 571.421875 C 371.667969 570.820312 372.042969 570.199219 372.386719 569.5625 C 372.726562 568.921875 373.039062 568.269531 373.316406 567.601562 C 373.59375 566.933594 373.839844 566.25 374.050781 565.558594 C 374.261719 564.867188 374.4375 564.164062 374.578125 563.457031 C 374.722656 562.746094 374.828125 562.03125 374.898438 561.308594 C 374.96875 560.589844 375.007812 559.867188 375.007812 559.144531 C 375.007812 558.421875 374.96875 557.699219 374.898438 556.980469 C 374.828125 556.257812 374.722656 555.542969 374.578125 554.832031 C 374.4375 554.125 374.261719 553.421875 374.050781 552.730469 C 373.839844 552.039062 373.59375 551.355469 373.316406 550.6875 C 373.039062 550.019531 372.726562 549.367188 372.386719 548.726562 C 372.042969 548.089844 371.667969 547.46875 371.265625 546.867188 C 370.859375 546.265625 370.429688 545.683594 369.96875 545.125 C 369.503906 544.566406 369.019531 544.03125 368.503906 543.519531 C 367.988281 543.007812 367.453125 542.523438 366.890625 542.0625 C 366.328125 541.605469 365.746094 541.171875 365.140625 540.769531 C 364.535156 540.367188 363.914062 539.996094 363.269531 539.65625 C 362.628906 539.316406 361.972656 539.007812 361.300781 538.730469 C 360.628906 538.453125 359.945312 538.207031 359.25 538 C 358.554688 537.789062 357.851562 537.613281 357.136719 537.472656 C 356.425781 537.332031 355.707031 537.222656 354.984375 537.152344 C 354.257812 537.082031 353.535156 537.046875 352.804688 537.046875 C 352.078125 537.046875 351.355469 537.082031 350.628906 537.152344 C 349.90625 537.222656 349.1875 537.332031 348.476562 537.472656 C 347.761719 537.613281 347.058594 537.789062 346.363281 538 C 345.667969 538.207031 344.984375 538.453125 344.3125 538.730469 C 343.640625 539.007812 342.984375 539.316406 342.339844 539.65625 C 341.699219 539.996094 341.078125 540.367188 340.472656 540.769531 C 339.867188 541.171875 339.285156 541.605469 338.722656 542.0625 C 338.160156 542.523438 337.625 543.007812 337.109375 543.519531 C 336.59375 544.03125 336.105469 544.566406 335.644531 545.125 C 335.183594 545.683594 334.753906 546.265625 334.347656 546.867188 C 333.945312 547.46875 333.570312 548.089844 333.226562 548.726562 C 332.886719 549.367188 332.574219 550.019531 332.296875 550.6875 C 332.019531 551.355469 331.773438 552.039062 331.5625 552.730469 C 331.351562 553.421875 331.175781 554.125 331.035156 554.832031 C 330.890625 555.542969 330.785156 556.257812 330.714844 556.980469 C 330.644531 557.699219 330.605469 558.421875 330.605469 559.144531 C 330.609375 559.867188 330.644531 560.589844 330.714844 561.308594 C 330.789062 562.03125 330.894531 562.746094 331.035156 563.453125 C 331.179688 564.164062 331.355469 564.863281 331.566406 565.558594 C 331.777344 566.25 332.023438 566.929688 332.300781 567.597656 C 332.582031 568.265625 332.890625 568.917969 333.234375 569.558594 C 333.578125 570.195312 333.949219 570.816406 334.355469 571.417969 C 334.757812 572.019531 335.191406 572.597656 335.652344 573.15625 C 336.113281 573.71875 336.601562 574.253906 337.113281 574.765625 C 337.628906 575.277344 338.167969 575.761719 338.730469 576.21875 C 339.289062 576.679688 339.875 577.109375 340.476562 577.511719 C 341.082031 577.914062 341.703125 578.285156 342.347656 578.625 C 342.988281 578.96875 343.644531 579.277344 344.3125 579.554688 C 344.984375 579.832031 345.667969 580.074219 346.363281 580.285156 C 347.058594 580.496094 347.765625 580.671875 348.476562 580.8125 C 349.191406 580.957031 349.90625 581.0625 350.632812 581.132812 C 351.355469 581.207031 352.078125 581.242188 352.804688 581.242188 Z M 352.804688 545.886719 C 353.679688 545.886719 354.546875 545.972656 355.40625 546.140625 C 356.261719 546.3125 357.097656 546.5625 357.902344 546.894531 C 358.710938 547.226562 359.480469 547.636719 360.207031 548.121094 C 360.933594 548.605469 361.605469 549.152344 362.226562 549.769531 C 362.84375 550.386719 363.394531 551.054688 363.882812 551.777344 C 364.367188 552.503906 364.777344 553.265625 365.113281 554.070312 C 365.445312 554.875 365.699219 555.703125 365.871094 556.558594 C 366.039062 557.410156 366.125 558.273438 366.125 559.144531 C 366.125 560.015625 366.039062 560.878906 365.871094 561.730469 C 365.699219 562.585938 365.445312 563.414062 365.113281 564.21875 C 364.777344 565.023438 364.367188 565.785156 363.882812 566.511719 C 363.394531 567.234375 362.84375 567.902344 362.226562 568.519531 C 361.605469 569.136719 360.933594 569.683594 360.207031 570.167969 C 359.480469 570.652344 358.710938 571.0625 357.902344 571.394531 C 357.097656 571.726562 356.261719 571.976562 355.40625 572.148438 C 354.546875 572.316406 353.679688 572.402344 352.804688 572.402344 C 351.933594 572.402344 351.066406 572.316406 350.207031 572.148438 C 349.351562 571.976562 348.515625 571.726562 347.710938 571.394531 C 346.902344 571.0625 346.132812 570.652344 345.40625 570.167969 C 344.679688 569.683594 344.007812 569.136719 343.386719 568.519531 C 342.769531 567.902344 342.21875 567.234375 341.730469 566.511719 C 341.246094 565.785156 340.835938 565.023438 340.5 564.21875 C 340.164062 563.414062 339.914062 562.585938 339.742188 561.730469 C 339.570312 560.878906 339.488281 560.015625 339.488281 559.144531 C 339.488281 558.273438 339.574219 557.414062 339.746094 556.558594 C 339.917969 555.707031 340.167969 554.875 340.503906 554.074219 C 340.839844 553.269531 341.25 552.503906 341.734375 551.78125 C 342.222656 551.058594 342.773438 550.390625 343.390625 549.773438 C 344.011719 549.160156 344.683594 548.609375 345.410156 548.125 C 346.136719 547.640625 346.902344 547.234375 347.710938 546.898438 C 348.519531 546.566406 349.351562 546.3125 350.210938 546.144531 C 351.066406 545.972656 351.933594 545.886719 352.804688 545.886719 Z M 383.886719 612.179688 C 383.886719 612.46875 383.859375 612.757812 383.800781 613.039062 C 383.742188 613.324219 383.660156 613.601562 383.546875 613.871094 C 383.4375 614.136719 383.300781 614.394531 383.136719 614.632812 C 382.976562 614.875 382.792969 615.097656 382.585938 615.304688 C 382.378906 615.507812 382.15625 615.691406 381.914062 615.851562 C 381.671875 616.015625 381.414062 616.152344 381.144531 616.261719 C 380.875 616.371094 380.597656 616.457031 380.3125 616.511719 C 380.027344 616.570312 379.738281 616.597656 379.445312 616.597656 C 379.15625 616.597656 378.867188 616.570312 378.578125 616.511719 C 378.292969 616.457031 378.015625 616.371094 377.746094 616.261719 C 377.476562 616.152344 377.222656 616.015625 376.980469 615.851562 C 376.738281 615.691406 376.511719 615.507812 376.304688 615.304688 C 376.101562 615.097656 375.917969 614.875 375.753906 614.632812 C 375.59375 614.394531 375.457031 614.136719 375.34375 613.871094 C 375.234375 613.601562 375.148438 613.324219 375.089844 613.039062 C 375.035156 612.757812 375.007812 612.46875 375.007812 612.179688 C 375.003906 611.308594 374.917969 610.445312 374.746094 609.59375 C 374.578125 608.738281 374.324219 607.910156 373.988281 607.105469 C 373.652344 606.304688 373.242188 605.539062 372.757812 604.816406 C 372.269531 604.09375 371.71875 603.421875 371.101562 602.808594 C 370.480469 602.191406 369.808594 601.644531 369.082031 601.160156 C 368.355469 600.675781 367.589844 600.265625 366.78125 599.933594 C 365.972656 599.601562 365.140625 599.347656 364.285156 599.175781 C 363.425781 599.007812 362.5625 598.921875 361.6875 598.921875 L 343.925781 598.921875 C 343.050781 598.921875 342.1875 599.007812 341.328125 599.175781 C 340.472656 599.347656 339.640625 599.601562 338.832031 599.933594 C 338.023438 600.265625 337.257812 600.675781 336.53125 601.160156 C 335.804688 601.644531 335.128906 602.191406 334.511719 602.808594 C 333.894531 603.421875 333.34375 604.09375 332.855469 604.816406 C 332.371094 605.539062 331.960938 606.304688 331.625 607.105469 C 331.289062 607.910156 331.035156 608.738281 330.867188 609.59375 C 330.695312 610.445312 330.609375 611.308594 330.605469 612.179688 C 330.605469 612.46875 330.578125 612.757812 330.523438 613.039062 C 330.464844 613.324219 330.378906 613.601562 330.269531 613.871094 C 330.15625 614.136719 330.019531 614.394531 329.859375 614.632812 C 329.695312 614.875 329.511719 615.097656 329.304688 615.304688 C 329.101562 615.507812 328.875 615.691406 328.632812 615.851562 C 328.390625 616.015625 328.136719 616.152344 327.867188 616.261719 C 327.597656 616.371094 327.320312 616.457031 327.035156 616.511719 C 326.746094 616.570312 326.457031 616.597656 326.167969 616.597656 C 325.875 616.597656 325.585938 616.570312 325.300781 616.511719 C 325.015625 616.457031 324.738281 616.371094 324.46875 616.261719 C 324.199219 616.152344 323.941406 616.015625 323.699219 615.851562 C 323.457031 615.691406 323.234375 615.507812 323.027344 615.304688 C 322.820312 615.097656 322.636719 614.875 322.476562 614.632812 C 322.3125 614.394531 322.175781 614.136719 322.066406 613.871094 C 321.953125 613.601562 321.871094 613.324219 321.8125 613.039062 C 321.753906 612.757812 321.726562 612.46875 321.726562 612.179688 C 321.726562 611.453125 321.765625 610.734375 321.835938 610.011719 C 321.90625 609.292969 322.015625 608.578125 322.15625 607.867188 C 322.300781 607.160156 322.476562 606.457031 322.6875 605.765625 C 322.898438 605.074219 323.144531 604.394531 323.421875 603.726562 C 323.699219 603.058594 324.011719 602.402344 324.355469 601.765625 C 324.699219 601.128906 325.070312 600.507812 325.476562 599.90625 C 325.878906 599.304688 326.3125 598.726562 326.773438 598.164062 C 327.234375 597.605469 327.722656 597.070312 328.234375 596.558594 C 328.75 596.046875 329.289062 595.5625 329.847656 595.101562 C 330.410156 594.644531 330.992188 594.214844 331.597656 593.8125 C 332.203125 593.410156 332.824219 593.039062 333.464844 592.695312 C 334.105469 592.355469 334.761719 592.046875 335.433594 591.769531 C 336.105469 591.492188 336.789062 591.246094 337.484375 591.039062 C 338.179688 590.828125 338.882812 590.652344 339.597656 590.507812 C 340.308594 590.367188 341.027344 590.261719 341.75 590.1875 C 342.476562 590.117188 343.199219 590.082031 343.925781 590.082031 L 361.6875 590.082031 C 362.414062 590.082031 363.136719 590.117188 363.863281 590.1875 C 364.585938 590.261719 365.304688 590.367188 366.015625 590.507812 C 366.730469 590.652344 367.433594 590.828125 368.128906 591.039062 C 368.824219 591.246094 369.507812 591.492188 370.179688 591.769531 C 370.851562 592.046875 371.507812 592.355469 372.148438 592.695312 C 372.789062 593.039062 373.410156 593.410156 374.015625 593.8125 C 374.621094 594.214844 375.203125 594.644531 375.765625 595.101562 C 376.324219 595.5625 376.863281 596.046875 377.378906 596.558594 C 377.890625 597.070312 378.378906 597.605469 378.839844 598.164062 C 379.300781 598.726562 379.734375 599.304688 380.136719 599.90625 C 380.542969 600.507812 380.914062 601.128906 381.257812 601.765625 C 381.601562 602.402344 381.914062 603.058594 382.191406 603.726562 C 382.46875 604.394531 382.714844 605.074219 382.925781 605.765625 C 383.136719 606.457031 383.3125 607.160156 383.457031 607.867188 C 383.597656 608.578125 383.707031 609.292969 383.777344 610.011719 C 383.847656 610.734375 383.886719 611.453125 383.886719 612.179688 Z M 454.925781 563.5625 C 454.925781 563.855469 454.898438 564.140625 454.839844 564.425781 C 454.78125 564.710938 454.699219 564.988281 454.585938 565.253906 C 454.476562 565.523438 454.339844 565.777344 454.175781 566.019531 C 454.015625 566.261719 453.832031 566.484375 453.625 566.691406 C 453.417969 566.894531 453.195312 567.078125 452.953125 567.238281 C 452.710938 567.402344 452.453125 567.535156 452.183594 567.648438 C 451.914062 567.757812 451.636719 567.84375 451.351562 567.898438 C 451.066406 567.957031 450.777344 567.984375 450.484375 567.984375 L 414.964844 567.984375 C 414.675781 567.984375 414.386719 567.957031 414.097656 567.898438 C 413.8125 567.84375 413.535156 567.757812 413.265625 567.648438 C 412.996094 567.535156 412.742188 567.398438 412.5 567.238281 C 412.257812 567.078125 412.03125 566.894531 411.824219 566.6875 C 411.621094 566.484375 411.4375 566.261719 411.273438 566.019531 C 411.113281 565.777344 410.976562 565.523438 410.863281 565.253906 C 410.75 564.988281 410.667969 564.710938 410.609375 564.425781 C 410.554688 564.140625 410.527344 563.855469 410.527344 563.5625 C 410.527344 563.273438 410.554688 562.988281 410.609375 562.703125 C 410.667969 562.417969 410.75 562.140625 410.863281 561.871094 C 410.976562 561.605469 411.113281 561.351562 411.273438 561.109375 C 411.4375 560.867188 411.621094 560.644531 411.824219 560.4375 C 412.03125 560.234375 412.257812 560.050781 412.5 559.890625 C 412.742188 559.726562 412.996094 559.59375 413.265625 559.480469 C 413.535156 559.371094 413.8125 559.285156 414.097656 559.230469 C 414.386719 559.171875 414.675781 559.144531 414.964844 559.144531 L 450.484375 559.144531 C 450.777344 559.144531 451.066406 559.171875 451.351562 559.230469 C 451.636719 559.285156 451.914062 559.371094 452.183594 559.480469 C 452.453125 559.589844 452.710938 559.726562 452.953125 559.886719 C 453.195312 560.050781 453.417969 560.234375 453.625 560.4375 C 453.832031 560.644531 454.015625 560.867188 454.175781 561.109375 C 454.339844 561.347656 454.476562 561.605469 454.585938 561.871094 C 454.699219 562.140625 454.78125 562.417969 454.839844 562.703125 C 454.898438 562.988281 454.925781 563.273438 454.925781 563.5625 Z M 437.164062 590.082031 C 437.164062 590.371094 437.136719 590.660156 437.082031 590.945312 C 437.023438 591.226562 436.9375 591.503906 436.828125 591.773438 C 436.714844 592.039062 436.578125 592.296875 436.417969 592.535156 C 436.253906 592.777344 436.070312 593 435.867188 593.207031 C 435.660156 593.414062 435.433594 593.59375 435.191406 593.757812 C 434.949219 593.917969 434.695312 594.054688 434.425781 594.164062 C 434.15625 594.277344 433.878906 594.359375 433.589844 594.417969 C 433.304688 594.472656 433.015625 594.5 432.726562 594.5 L 414.964844 594.5 C 414.675781 594.5 414.386719 594.472656 414.097656 594.414062 C 413.8125 594.359375 413.535156 594.273438 413.265625 594.164062 C 412.996094 594.054688 412.742188 593.917969 412.5 593.753906 C 412.257812 593.59375 412.03125 593.410156 411.824219 593.207031 C 411.621094 593 411.4375 592.777344 411.273438 592.535156 C 411.113281 592.296875 410.976562 592.039062 410.863281 591.773438 C 410.75 591.503906 410.667969 591.226562 410.609375 590.941406 C 410.554688 590.660156 410.527344 590.371094 410.527344 590.082031 C 410.527344 589.789062 410.554688 589.503906 410.609375 589.21875 C 410.667969 588.933594 410.75 588.65625 410.863281 588.390625 C 410.976562 588.121094 411.113281 587.867188 411.273438 587.625 C 411.4375 587.382812 411.621094 587.160156 411.824219 586.957031 C 412.03125 586.75 412.257812 586.566406 412.5 586.40625 C 412.742188 586.246094 412.996094 586.109375 413.265625 585.996094 C 413.535156 585.886719 413.8125 585.804688 414.097656 585.746094 C 414.386719 585.691406 414.675781 585.660156 414.964844 585.660156 L 432.726562 585.660156 C 433.015625 585.660156 433.304688 585.691406 433.589844 585.746094 C 433.878906 585.800781 434.15625 585.886719 434.425781 585.996094 C 434.695312 586.109375 434.949219 586.246094 435.191406 586.40625 C 435.433594 586.566406 435.660156 586.75 435.867188 586.957031 C 436.070312 587.160156 436.253906 587.382812 436.417969 587.625 C 436.578125 587.867188 436.714844 588.121094 436.828125 588.390625 C 436.9375 588.65625 437.023438 588.933594 437.082031 589.21875 C 437.136719 589.503906 437.164062 589.789062 437.164062 590.082031 Z M 437.164062 590.082031 " fill-opacity="1" fill-rule="nonzero"/></g><g clip-path="url(#8db4082b97)"><path fill="#000000" d="M 383.847656 383.5625 C 285.882812 383.5625 206.1875 303.863281 206.1875 205.902344 C 206.1875 107.9375 285.882812 28.242188 383.847656 28.242188 C 481.8125 28.242188 561.507812 107.9375 561.507812 205.902344 C 561.507812 303.863281 481.8125 383.5625 383.847656 383.5625 Z M 561.71875 130.757812 C 551.992188 107.769531 538.078125 87.125 520.351562 69.398438 C 502.625 51.671875 481.980469 37.753906 458.988281 28.03125 C 435.1875 17.960938 409.90625 12.859375 383.847656 12.859375 C 357.789062 12.859375 332.507812 17.960938 308.707031 28.03125 C 285.714844 37.753906 265.070312 51.671875 247.34375 69.398438 C 229.617188 87.125 215.703125 107.769531 205.980469 130.757812 C 195.910156 154.5625 190.804688 179.84375 190.804688 205.902344 C 190.804688 231.957031 195.910156 257.242188 205.980469 281.042969 C 215.703125 304.03125 229.617188 324.675781 247.34375 342.402344 C 265.070312 360.128906 285.714844 374.046875 308.707031 383.773438 C 332.507812 393.839844 357.789062 398.945312 383.847656 398.945312 C 409.90625 398.945312 435.1875 393.839844 458.988281 383.773438 C 481.980469 374.046875 502.625 360.128906 520.351562 342.402344 C 538.078125 324.675781 551.992188 304.03125 561.71875 281.042969 C 571.785156 257.242188 576.890625 231.957031 576.890625 205.902344 C 576.890625 179.84375 571.785156 154.5625 561.71875 130.757812 " fill-opacity="1" fill-rule="nonzero"/></g><path fill="#000000" d="M 476.371094 271.070312 L 391.539062 202.238281 L 391.539062 110.9375 C 391.539062 106.691406 388.09375 103.25 383.847656 103.25 C 379.601562 103.25 376.15625 106.691406 376.15625 110.9375 L 376.15625 205.902344 C 376.15625 208.21875 377.203125 210.414062 379 211.875 L 466.679688 283.015625 C 468.105469 284.171875 469.816406 284.734375 471.519531 284.734375 C 473.757812 284.734375 475.976562 283.761719 477.496094 281.886719 C 480.171875 278.589844 479.667969 273.746094 476.371094 271.070312 " fill-opacity="1" fill-rule="nonzero"/><g clip-path="url(#c5b7f74808)"><g clip-path="url(#1f38015a94)"><path fill="url(#ebe5379339)" d="M 317.960938 399.25 L 317.960938 513.5 L 458.460938 513.5 L 458.460938 399.25 Z M 317.960938 399.25 " fill-rule="nonzero"/></g></g></svg>